<svg xmlns="http://www.w3.org/2000/svg" xml:space="preserve" style="fill-rule:evenodd;clip-rule:evenodd;stroke-linejoin:round;stroke-miterlimit:2" viewBox="0 0 200 186"><path d="M21.226 128.515H8.645l33.792-89.339a3.407 3.407 0 0 1 6.387.034l32.692 89.305H68.739l-6.968-18.428H28.183zm12.217-33.531c-.59 1.652-.191 3.296 2.104 3.296 0 0 16.096.016 19.273 0 1.444-.007 2.306-1.308 1.763-2.913-2.875-8.499-7.258-21.292-9.214-26.606-1.12-3.042-3.288-2.917-4.354.145 0 0-8.805 23.932-9.572 26.078"></path><path d="M141.177 185.108q.321-.013.617-.077c1.552-1.225 1.655-2.907.762-4.744-3.636-7.482-8.369-15.046-5.336-23.384 3.91-10.747 11.714-19.837 19.032-28.385 17.517-20.459 37.952-40.82 42.599-68.149 1.58-9.287 1.809-18.031-1.103-26.979-5.151-15.828-19.302-25.367-34.609-29.626-15.284-4.253-30.606-5.06-47.7-1.608-9.524 1.924-25.809 8.061-28.764 13.743-1.989 3.823-1.161 12.321-1.161 12.321h11.175s6.032-12.879 30.669-14.114c9.075-.455 19.256 2.851 25.628 9.316 7.009 7.112 9.842 17.823 10.201 27.496 1.066 28.715-16.429 53.612-33.401 75.73-5.441 7.09-12.568 14.162-15.49 22.589-2.96 8.541.42 15.94 6.73 21.863 3.958 3.714 14.853 14.196 20.151 14.008" style="fill:#72b600"></path><path d="M85.51 34.377h10.905v94.138H85.51zM100.48 78.969V69.48h6.36c2.306 0 3.833-1.06 4.569-3.179q.55-1.589.55-6.091c0-7.669 3.758-15.577 11.185-21.216 5.339-4.053 13.289-6.348 16.32-6.702l-.138 9.656q-7.644 1.853-12.226 8.143-4.58 6.293-4.58 14.092 0 5.296 7.37 5.297h9.964v9.489h-9.08c-2.846 0-4.855.221-6.05.662q-2.892 1.06-2.893 4.502v44.359l-10.904.133V84.387c0-2.56-1.091-4.226-3.261-5.021a16.5 16.5 0 0 0-3.661-.397h-3.5250000000000004"></path><path d="M86.776 136.879c11.225 0 20.326 9.099 20.326 20.325s-9.099 20.325-20.325 20.325c-11.225-.001-20.327-9.101-20.327-20.326 0-11.226 9.101-20.325 20.326-20.324m.097 32.646c2.688 0 5.05-.742 7.093-2.21 2.417-1.701 3.607-3.94 3.607-6.699v-14.525a1.21 1.21 0 0 0-1.21-1.211h-3.825a1.21 1.21 0 0 0-1.21 1.211v12.782q.002 1.915-1.316 3.235c-.881.881-1.96 1.316-3.236 1.316q-1.82-.002-3.214-1.243c-.888-.79-1.337-1.761-1.337-2.921v-13.169a1.21 1.21 0 0 0-1.211-1.211h-3.825a1.21 1.21 0 0 0-1.21 1.211v14.525c0 2.795 1.21 5.053 3.663 6.753 2.037 1.429 4.445 2.156 7.231 2.156" style="fill:#ffae0d"></path><path d="M65.825 141.008c4.893 3.712 8.052 9.587 8.052 16.201.001 11.224-9.099 20.32-20.324 20.32s-20.326-9.098-20.328-20.322c0-11.224 9.101-20.321 20.326-20.321 2.099 0 4.124.318 6.028.908v8.701c-.646-.377-1.453-.709-2.428-.982-1.348-.39-2.573-.579-3.673-.579-3.516 0-6.428 1.22-8.743 3.643-2.299 2.406-3.458 5.369-3.458 8.898 0 3.397 1.158 6.283 3.465 8.662 2.316 2.388 5.179 3.587 8.591 3.587 3.502 0 6.457-1.21 8.869-3.622s3.623-5.368 3.623-8.87zm-18.738 16.37c0-1.806.59-3.348 1.78-4.62 1.169-1.25 2.644-1.868 4.418-1.868 1.783 0 3.272.599 4.46 1.814 1.198 1.225 1.786 2.753 1.786 4.577 0 1.825-.598 3.361-1.81 4.601-1.203 1.23-2.7 1.838-4.485 1.838q-2.58 0-4.354-1.853-1.795-1.877-1.795-4.489" style="fill:#72b600"></path><path d="M20.326 136.881c11.226 0 20.326 9.1 20.326 20.324s-9.1 20.324-20.326 20.324S0 168.429 0 157.205s9.099-20.324 20.326-20.324m-5.659 23.164c.061-.025.143-.055.209-.07.258-.059.573-.083.942-.083H31.36a1.21 1.21 0 0 0 1.209-1.158l.049-1.116c.143-3.471-1.023-6.497-3.51-9.073-2.485-2.575-5.464-3.856-8.933-3.856-3.522 0-6.43 1.248-8.731 3.728-2.277 2.455-3.422 5.423-3.422 8.909 0 3.468 1.194 6.398 3.572 8.793 2.38 2.398 5.303 3.602 8.775 3.602q4.956 0 8.457-3.502a1.21 1.21 0 0 0 .066-1.641l-2.227-2.614a1.21 1.21 0 0 0-1.66-.174c-1.709 1.316-3.256 2.024-4.684 2.024-1.509 0-2.783-.48-3.815-1.459l-.007-.006c-.662-.619-1.163-1.169-1.494-1.658-.169-.25-.301-.457-.338-.646m11.137-6.025c-.07.008-.142.014-.206.014h-9.997l-.495-.021c.123-.382.418-.84.823-1.403.473-.656 1.143-1.186 1.997-1.606.867-.427 1.712-.65 2.54-.65 1.782 0 3.252.759 4.422 2.249l.001.001q.544.686.817 1.217.055.106.098.199" style="fill:#00aaed"></path></svg>